<?xml version="1.0" encoding="UTF-8"?>
<svg xmlns="http://www.w3.org/2000/svg" version="1.1" viewBox="0 0 800 800">
  <defs>
    <style>
      .cls-1 {
        fill-rule: evenodd;
      }
    </style>
  </defs>
  <!-- Generator: Adobe Illustrator 28.6.0, SVG Export Plug-In . SVG Version: 1.2.0 Build 709)  -->
  <g>
    <g id="Layer_3">
      <path class="cls-1" d="M785.1641,0c.1953,1.7532.6643,3.421,1.3563,4.9691v.0309c.0848.1872.1873.364.2786.5474.1247.2524.2457.5065.3825.7516.0798.1423.1696.2773.2534.417.1923.3223.3854.6436.5983.9515.0064.0092.0137.0176.0201.0268,1.1161,1.6077,2.5071,3.0057,4.1025,4.1382.0662.0471.1281.0995.195.1458.2516.1732.5153.3287.7766.4883.202.1241.4.2534.6075.3691.1816.1006.3704.1888.556.283.2363.1207.4667.2512.7093.361v786.5203H0V0h785.1641Z"/>
    </g>
  </g>
</svg>